<svg width="212" height="79" viewBox="0 0 212 79" fill="none" xmlns="http://www.w3.org/2000/svg">
<path d="M24.3242 55H14.5C14.3307 55 14.2461 54.8893 14.2461 54.668C14.2461 54.4336 14.2721 54.2969 14.3242 54.2578C14.3893 54.2057 14.474 54.1602 14.5781 54.1211C14.6823 54.069 14.8125 53.9648 14.9688 53.8086C15.138 53.6393 15.3138 53.3398 15.4961 52.9102C15.6784 52.4674 15.7695 52.0247 15.7695 51.582V26.4258C15.7695 25.4753 15.457 24.6875 14.832 24.0625C14.7799 24.0104 14.6693 23.9453 14.5 23.8672C14.3307 23.7891 14.2461 23.6263 14.2461 23.3789C14.2461 23.1315 14.3307 23.0078 14.5 23.0078H23.3477C26.5247 23.0078 29.5651 23.8672 32.4688 25.5859C34.526 26.8099 36.2318 28.5417 37.5859 30.7812C38.9401 33.0078 39.6172 35.7161 39.6172 38.9062C39.6172 40.9375 39.2396 42.9232 38.4844 44.8633C37.7292 46.7904 36.694 48.5026 35.3789 50C34.0768 51.4974 32.4557 52.7083 30.5156 53.6328C28.5885 54.5443 26.5247 55 24.3242 55ZM19.5586 51.2109C19.5586 51.6927 19.9557 51.9336 20.75 51.9336H22.9375C28.224 51.9206 31.8958 50.1172 33.9531 46.5234C35.151 44.4271 35.75 41.888 35.75 38.9062C35.75 35.2734 34.7474 32.2721 32.7422 29.9023C31.7396 28.7174 30.4049 27.793 28.7383 27.1289C27.0716 26.4518 25.151 26.1133 22.9766 26.1133H19.9688C19.8646 26.1133 19.7669 26.1523 19.6758 26.2305C19.5977 26.3086 19.5586 26.4062 19.5586 26.5234V51.2109ZM55.457 51.6797C56.7331 52.1875 57.9831 52.4414 59.207 52.4414C63.3737 52.4414 66.6875 51.224 69.1484 48.7891C71.6224 46.3411 72.8594 43.0599 72.8594 38.9453C72.8594 37.526 72.4948 36.0352 71.7656 34.4727C71.0495 32.9102 70.0859 31.4844 68.875 30.1953C67.6641 28.8932 66.1797 27.819 64.4219 26.9727C62.6771 26.1263 60.6979 25.7031 58.4844 25.7031C56.2708 25.7031 54.181 26.263 52.2148 27.3828C50.2487 28.5026 48.7318 30.0521 47.6641 32.0312C46.5964 34.0104 46.0625 36.3086 46.0625 38.9258C46.0625 41.5299 47.013 44.0625 48.9141 46.5234C50.8281 48.9844 53.0091 50.7031 55.457 51.6797ZM47.2734 50.7617C45.8151 49.2383 44.6562 47.4349 43.7969 45.3516C42.9375 43.2552 42.5078 41.0938 42.5078 38.8672C42.5078 36.6276 42.957 34.4987 43.8555 32.4805C44.7669 30.4492 45.9648 28.6979 47.4492 27.2266C48.9466 25.7422 50.7044 24.5573 52.7227 23.6719C54.7539 22.7865 56.7656 22.3438 58.7578 22.3438C60.75 22.3438 62.612 22.6042 64.3438 23.125C67.7682 24.1536 70.6198 26.0742 72.8984 28.8867C75.1901 31.6862 76.3359 34.9805 76.3359 38.7695C76.3359 40.9961 75.9323 43.125 75.125 45.1562C74.3177 47.1875 73.1849 48.9909 71.7266 50.5664C70.2812 52.1289 68.4518 53.3789 66.2383 54.3164C64.0378 55.2539 61.7135 55.7227 59.2656 55.7227C56.8177 55.7227 54.5716 55.2734 52.5273 54.375C50.4831 53.4766 48.7318 52.2721 47.2734 50.7617ZM90.2227 55H80.3984C80.2292 55 80.1445 54.8893 80.1445 54.668C80.1445 54.4336 80.1706 54.2969 80.2227 54.2578C80.2878 54.2057 80.3724 54.1602 80.4766 54.1211C80.5807 54.069 80.7109 53.9648 80.8672 53.8086C81.0365 53.6393 81.2122 53.3398 81.3945 52.9102C81.5768 52.4674 81.668 52.0247 81.668 51.582V26.4258C81.668 25.4753 81.3555 24.6875 80.7305 24.0625C80.6784 24.0104 80.5677 23.9453 80.3984 23.8672C80.2292 23.7891 80.1445 23.6263 80.1445 23.3789C80.1445 23.1315 80.2292 23.0078 80.3984 23.0078H89.2461C92.4232 23.0078 95.4635 23.8672 98.3672 25.5859C100.424 26.8099 102.13 28.5417 103.484 30.7812C104.839 33.0078 105.516 35.7161 105.516 38.9062C105.516 40.9375 105.138 42.9232 104.383 44.8633C103.628 46.7904 102.592 48.5026 101.277 50C99.9753 51.4974 98.3542 52.7083 96.4141 53.6328C94.487 54.5443 92.4232 55 90.2227 55ZM85.457 51.2109C85.457 51.6927 85.8542 51.9336 86.6484 51.9336H88.8359C94.1224 51.9206 97.7943 50.1172 99.8516 46.5234C101.049 44.4271 101.648 41.888 101.648 38.9062C101.648 35.2734 100.646 32.2721 98.6406 29.9023C97.638 28.7174 96.3034 27.793 94.6367 27.1289C92.9701 26.4518 91.0495 26.1133 88.875 26.1133H85.8672C85.763 26.1133 85.6654 26.1523 85.5742 26.2305C85.4961 26.3086 85.457 26.4062 85.457 26.5234V51.2109ZM110.652 26.4258C110.652 25.5013 110.327 24.7135 109.676 24.0625C109.624 24.0104 109.513 23.9453 109.344 23.8672C109.174 23.7891 109.09 23.6263 109.09 23.3789C109.09 23.1315 109.174 23.0078 109.344 23.0078H115.906C116.076 23.0078 116.16 23.125 116.16 23.3594C116.16 23.5807 116.128 23.7174 116.062 23.7695C116.01 23.8086 115.932 23.8542 115.828 23.9062C115.724 23.9453 115.587 24.0495 115.418 24.2188C115.262 24.375 115.092 24.6745 114.91 25.1172C114.728 25.5469 114.637 25.9831 114.637 26.4258V42.6172C114.637 45.625 115.561 47.9622 117.41 49.6289C119.272 51.2826 121.544 52.1094 124.227 52.1094C125.802 52.1094 127.28 51.7122 128.66 50.918C130.053 50.1107 131.154 49.0495 131.961 47.7344C132.781 46.4062 133.191 45 133.191 43.5156V26.4258C133.191 25.4753 132.879 24.6875 132.254 24.0625C132.202 24.0104 132.091 23.9453 131.922 23.8672C131.753 23.7891 131.668 23.6263 131.668 23.3789C131.668 23.1315 131.753 23.0078 131.922 23.0078H138.016C138.185 23.0078 138.27 23.125 138.27 23.3594C138.27 23.5807 138.237 23.7174 138.172 23.7695C138.12 23.8086 138.042 23.8542 137.938 23.9062C137.833 23.9453 137.697 24.0495 137.527 24.2188C137.371 24.375 137.202 24.6745 137.02 25.1172C136.837 25.5469 136.746 25.9831 136.746 26.4258V43.5156C136.746 45.7552 136.167 47.8125 135.008 49.6875C133.862 51.5625 132.319 53.0339 130.379 54.1016C128.452 55.1693 126.31 55.7031 123.953 55.7031C121.609 55.7031 119.415 55.1562 117.371 54.0625C115.34 52.9688 113.712 51.4193 112.488 49.4141C111.264 47.3958 110.652 45.1302 110.652 42.6172V26.4258ZM151.277 36.7383L163.621 52.0117C163.986 52.5065 164.389 52.9492 164.832 53.3398C165.275 53.7174 165.516 53.9258 165.555 53.9648C165.594 54.0039 165.698 54.0625 165.867 54.1406C166.036 54.2188 166.121 54.3815 166.121 54.6289C166.121 54.8763 166.036 55 165.867 55H158.797C158.628 55 158.543 54.8893 158.543 54.668C158.543 54.4336 158.569 54.2969 158.621 54.2578C158.686 54.2057 158.771 54.1536 158.875 54.1016C159.357 53.8932 159.559 53.5807 159.48 53.1641C159.415 52.7344 159.135 52.1875 158.641 51.5234L148.68 39.1992H148.348V51.582C148.348 52.5326 148.66 53.3203 149.285 53.9453C149.337 53.9974 149.448 54.0625 149.617 54.1406C149.786 54.2188 149.871 54.3815 149.871 54.6289C149.871 54.8763 149.786 55 149.617 55H143.289C143.12 55 143.035 54.8893 143.035 54.668C143.035 54.4336 143.061 54.2969 143.113 54.2578C143.178 54.2057 143.263 54.1602 143.367 54.1211C143.471 54.069 143.602 53.9648 143.758 53.8086C143.927 53.6393 144.103 53.3398 144.285 52.9102C144.467 52.4674 144.559 52.0247 144.559 51.582V26.4258C144.559 25.4753 144.246 24.6875 143.621 24.0625C143.569 24.0104 143.458 23.9453 143.289 23.8672C143.12 23.7891 143.035 23.6263 143.035 23.3789C143.035 23.1315 143.12 23.0078 143.289 23.0078H149.617C149.786 23.0078 149.871 23.125 149.871 23.3594C149.871 23.5807 149.839 23.7174 149.773 23.7695C149.721 23.8086 149.643 23.8542 149.539 23.9062C149.435 23.9453 149.298 24.0495 149.129 24.2188C148.973 24.375 148.803 24.6745 148.621 25.1172C148.439 25.5469 148.348 25.9831 148.348 26.4258V34.5898H148.68L157.527 26.1523C158.361 25.3581 158.803 24.9284 158.855 24.8633C159.207 24.4466 159.103 24.1146 158.543 23.8672C158.374 23.7891 158.289 23.6263 158.289 23.3789C158.289 23.1315 158.374 23.0078 158.543 23.0078H164.695C164.865 23.0078 164.949 23.125 164.949 23.3594C164.949 23.5938 164.93 23.737 164.891 23.7891C164.865 23.8281 164.702 23.9128 164.402 24.043C164.103 24.1602 163.621 24.5638 162.957 25.2539L151.277 36.4258V36.7383ZM168.855 52.0117C168.855 52.0117 173.139 42.4219 181.707 23.2422C181.772 23.0859 182.091 23.0078 182.664 23.0078C183.237 23.0078 183.562 23.0859 183.641 23.2422L196.883 52.0117C197.391 53.1966 197.892 53.9062 198.387 54.1406C198.556 54.2188 198.641 54.3815 198.641 54.6289C198.641 54.8763 198.556 55 198.387 55H191.316C191.147 55 191.062 54.8893 191.062 54.668C191.062 54.4336 191.089 54.2969 191.141 54.2578C191.206 54.2057 191.29 54.1602 191.395 54.1211C191.499 54.069 191.583 54.0104 191.648 53.9453C192.143 53.4505 192.391 52.9948 192.391 52.5781C192.391 52.1484 192.345 51.7969 192.254 51.5234L189.422 44.8242H175.34L172.566 51.5234C172.475 51.7969 172.43 52.0052 172.43 52.1484V52.3633C172.43 52.3763 172.43 52.3893 172.43 52.4023C172.43 52.9362 172.677 53.4505 173.172 53.9453C173.224 53.9974 173.335 54.0625 173.504 54.1406C173.673 54.2188 173.758 54.3815 173.758 54.6289C173.758 54.8763 173.673 55 173.504 55H167.352C167.182 55 167.098 54.8893 167.098 54.668C167.098 54.4336 167.124 54.2969 167.176 54.2578C167.241 54.2057 167.326 54.1536 167.43 54.1016C167.859 53.9193 168.335 53.2227 168.855 52.0117ZM176.727 41.7188C176.701 41.7578 176.694 41.8099 176.707 41.875C176.72 41.9271 176.746 41.9531 176.785 41.9531H187.938C187.977 41.9531 188.003 41.9271 188.016 41.875C188.029 41.8099 188.022 41.7578 187.996 41.7188L182.352 29.4531H182.215L176.727 41.7188Z" fill="black"/>
</svg>
